<?xml version="1.0" encoding="UTF-8"?>
<svg width="40px" height="40px" viewBox="0 0 40 40" version="1.1" xmlns="http://www.w3.org/2000/svg" xmlns:xlink="http://www.w3.org/1999/xlink">
    <title>mdpi画板备份 2</title>
    <defs>
        <polygon id="path-1" points="0 0 40 0 40 40 0 40"></polygon>
        <linearGradient x1="0.000110719273%" y1="49.9997015%" x2="100%" y2="49.9997015%" id="linearGradient-3">
            <stop stop-color="#30CDD9" offset="0%"></stop>
            <stop stop-color="#00FFCC" offset="100%"></stop>
        </linearGradient>
        <path d="M31.1312861,16.6139667 C30.1578962,17.5871259 28.8642348,18.1230268 27.4884289,18.1230268 C27.4884289,18.1230268 27.4878521,18.1230268 27.4877367,18.1230268 C26.1112385,18.1230268 24.8171157,17.5868951 23.8440719,16.6138514 L11.4527044,4.22225314 C10.7589752,3.52863929 9.86011537,3.18690872 8.89664744,3.20133017 L9.34451985,2.75357313 C10.3172175,1.78087547 11.610302,1.24520529 12.9857618,1.24520529 C14.3108042,1.24520529 15.5696233,1.74672548 16.530207,2.65758398 L16.5304377,2.65769936 L27.8010859,13.9231558 C28.8212012,14.9431558 29.9638412,15.3039226 30.9401154,15.3039226 C31.4029861,15.3039226 31.8277842,15.2222396 32.1850899,15.0917543 C31.9319647,15.651191 31.5784662,16.1666712 31.1312861,16.6139667 Z M16.9511978,18.1231422 C15.5748151,18.1231422 14.2808076,17.5870105 13.3075331,16.6138514 L6.83011198,10.1363149 C5.49226332,8.79858161 4.11645741,8.73351205 3.16002715,8.93795046 L7.06766203,5.03043095 C8.37516797,4.2001018 9.71993892,4.21983034 10.5874177,5.08753987 L21.274055,15.7740618 C21.0778079,16.0761045 20.8508721,16.3574958 20.5945165,16.6139667 C19.6213573,17.5870105 18.3274652,18.1231422 16.9511978,18.1231422 Z M6.41442823,18.1230268 C5.03804547,18.1230268 3.74426875,17.5870105 2.7711096,16.6139667 C1.35965389,15.2023957 0.941316593,13.1694333 1.51309807,11.3882117 C1.62512385,11.14547 2.30743129,10.4045538 3.33285375,10.1533899 C4.28374618,9.9204547 5.16933831,10.2057686 5.96494062,11.0016016 L10.8174686,15.854245 L10.0579776,16.6139667 C9.08481846,17.5870105 7.79081099,18.1230268 6.41442823,18.1230268 Z M24.5577604,2.75357313 L31.1311707,9.326868 C32.0970614,10.2929895 32.6318086,11.575229 32.6394231,12.94019 L32.6394231,12.94019 C32.635039,13.3474516 32.3317272,13.7132949 31.8280149,13.918887 C31.0742925,14.2266983 29.7937835,14.1856261 28.6661418,13.0577536 L17.859172,2.25089922 C18.7406108,1.599396 19.8047981,1.24520529 20.9164031,1.24520529 C22.2918629,1.24520529 23.5850628,1.78087547 24.5577604,2.75357313 Z M31.996342,8.46181201 L25.4230472,1.88840176 C24.2192603,0.684614863 22.6187106,0.0215744825 20.9164031,0.0215744825 C19.4637598,0.0215744825 18.0756091,0.508788599 16.9511978,1.40372582 C15.8267866,0.508788599 14.4382898,0.0215744825 12.9857618,0.0215744825 C11.2834544,0.0215744825 9.68313539,0.684499491 8.47923312,1.88840176 L1.90593824,8.46169664 C1.18036647,9.18726841 0.6682321,10.0458636 0.366073974,10.959491 C0.353844588,10.9901798 0.342422803,11.0208687 0.332962335,11.0507499 L0.336423482,11.0517883 C-0.352344757,13.2467323 0.169711571,15.7430268 1.90593824,17.4791381 C3.11018663,18.6832711 4.71119783,19.3466576 6.41442823,19.3466576 C8.11754326,19.3466576 9.71890058,18.6832711 10.9232643,17.4790227 L11.6827553,16.7194164 L12.4422464,17.4790227 C13.6466101,18.6832711 15.2479674,19.3466576 16.9511978,19.3466576 C18.6541975,19.3466576 20.2554394,18.6832711 21.4598032,17.4791381 C21.7153512,17.2237055 21.9474788,16.9483135 22.155263,16.6553851 L22.9790159,17.4790227 C24.183149,18.6832711 25.7842755,19.3463115 27.4877367,19.3466576 C27.4878521,19.3466576 27.4880828,19.3466576 27.4880828,19.3466576 C29.1911978,19.3466576 30.792209,18.6832711 31.9964574,17.4790227 C33.2007058,16.2747743 33.8639769,14.6735324 33.8639769,12.9704174 C33.8639769,11.2673023 33.2005904,9.6660604 31.996342,8.46181201 L31.996342,8.46181201 Z" id="path-4"></path>
    </defs>
    <g id="画板备份-2" stroke="none" stroke-width="1" fill="none" fill-rule="evenodd">
        <g id="shutterstock_623877563">
            <g id="编组">
                <mask id="mask-2" fill="white">
                    <use xlink:href="#path-1"></use>
                </mask>
                <g id="Clip-2"></g>
                <polygon id="Fill-1" fill="url(#linearGradient-3)" mask="url(#mask-2)" points="0 40 40 40 40 0 0 0"></polygon>
            </g>
            <path d="M7.53320312,33.0498047 C7.74707031,33.0498047 7.87304688,32.9179688 7.87304688,32.6953125 L7.87304688,29.203125 C7.87304688,28.9013672 7.69433594,28.7226562 7.39257812,28.7226562 C7.12890625,28.7226562 6.9765625,28.8369141 6.86523438,29.1152344 L5.70507812,31.9628906 L5.68164062,31.9628906 L4.51855469,29.1152344 C4.40722656,28.8339844 4.2578125,28.7226562 3.99707031,28.7226562 C3.6953125,28.7226562 3.51074219,28.9042969 3.51074219,29.203125 L3.51074219,32.6953125 C3.51074219,32.9179688 3.63671875,33.0498047 3.85058594,33.0498047 C4.06445312,33.0498047 4.19335938,32.9179688 4.19335938,32.6953125 L4.19335938,30 L4.21386719,30 L5.3359375,32.7216797 C5.40625,32.8945312 5.52050781,32.9736328 5.69335938,32.9736328 C5.86914062,32.9736328 5.97753906,32.8945312 6.05078125,32.71875 L7.17285156,30 L7.19335938,30 L7.19335938,32.6953125 C7.19335938,32.9179688 7.31933594,33.0498047 7.53320312,33.0498047 Z M8.9921875,34.1542969 C9.61328125,34.1542969 9.93554688,33.8847656 10.2167969,33.1113281 L11.2392578,30.375 C11.265625,30.3046875 11.2802734,30.2226562 11.2802734,30.1640625 C11.2802734,29.9707031 11.1337891,29.8330078 10.9257812,29.8330078 C10.7412109,29.8330078 10.6357422,29.9179688 10.5742188,30.1171875 L9.83300781,32.3789062 L9.82128906,32.3789062 L9.08007812,30.1201172 C9.01855469,29.9150391 8.91601562,29.8330078 8.73144531,29.8330078 C8.51757812,29.8330078 8.35644531,29.9736328 8.35644531,30.1728516 C8.35644531,30.2314453 8.37109375,30.3076172 8.39746094,30.3808594 L9.4140625,33.0556641 L9.36132812,33.2080078 C9.25292969,33.4804688 9.08300781,33.5654297 8.91894531,33.5654297 C8.8515625,33.5654297 8.82226562,33.5625 8.76074219,33.5625 C8.59082031,33.5625 8.48535156,33.6591797 8.48535156,33.8085938 C8.48535156,34.03125 8.6640625,34.1542969 8.9921875,34.1542969 Z M12.0537109,33.0585938 C12.2646484,33.0585938 12.4140625,32.9267578 12.4140625,32.6923828 L12.4140625,32.4697266 L12.4287109,32.4697266 C12.6132812,32.8300781 12.9619141,33.0498047 13.4160156,33.0498047 C14.2041016,33.0498047 14.6992188,32.4404297 14.6992188,31.4472656 C14.6992188,30.4541016 14.2011719,29.8417969 13.4189453,29.8417969 C12.9765625,29.8417969 12.625,30.0644531 12.4462891,30.4277344 L12.4287109,30.4277344 L12.4287109,29.0976562 C12.4287109,28.8515625 12.2792969,28.7138672 12.0654297,28.7138672 C11.8515625,28.7138672 11.6992188,28.8515625 11.6992188,29.0976562 L11.6992188,32.6923828 C11.6992188,32.9296875 11.8427734,33.0585938 12.0537109,33.0585938 Z M13.1933594,32.4521484 C12.7421875,32.4521484 12.4257812,32.0566406 12.4257812,31.4472656 C12.4257812,30.84375 12.7421875,30.4423828 13.1933594,30.4423828 C13.6591797,30.4423828 13.9521484,30.8320312 13.9521484,31.4472656 C13.9521484,32.0654297 13.6591797,32.4521484 13.1933594,32.4521484 Z M17.4121094,33.0585938 C17.6171875,33.0585938 17.7666016,32.9267578 17.7666016,32.6923828 L17.7666016,30.8613281 C17.7666016,30.2373047 17.265625,29.8300781 16.4951172,29.8300781 C15.9003906,29.8300781 15.4199219,30.0585938 15.2617188,30.4189453 C15.2294922,30.4863281 15.2119141,30.5507812 15.2119141,30.6181641 C15.2119141,30.7939453 15.3408203,30.9111328 15.5195312,30.9111328 C15.6425781,30.9111328 15.7392578,30.8642578 15.8154297,30.7646484 C15.9970703,30.4980469 16.1816406,30.4013672 16.4658203,30.4013672 C16.8261719,30.4013672 17.0458984,30.5888672 17.0458984,30.9140625 L17.0458984,31.1367188 L16.2226562,31.1835938 C15.4667969,31.2304688 15.0419922,31.5615234 15.0419922,32.1123047 C15.0419922,32.671875 15.4785156,33.0498047 16.0791016,33.0498047 C16.4804688,33.0498047 16.8701172,32.8417969 17.0488281,32.5048828 L17.0634766,32.5048828 L17.0634766,32.7216797 C17.0751953,32.9384766 17.2128906,33.0585938 17.4121094,33.0585938 Z M16.3017578,32.4990234 C15.9853516,32.4990234 15.7714844,32.3378906 15.7714844,32.0830078 C15.7714844,31.8369141 15.9736328,31.6787109 16.3251953,31.6552734 L17.0458984,31.6113281 L17.0458984,31.8486328 C17.0458984,32.2236328 16.7119141,32.4990234 16.3017578,32.4990234 Z M19.4013672,33.0322266 C19.7353516,33.0322266 19.9228516,32.9179688 19.9228516,32.7041016 C19.9228516,32.5341797 19.8232422,32.4521484 19.6298828,32.4345703 L19.5771484,32.4287109 C19.3662109,32.4111328 19.2841797,32.3085938 19.2841797,32.0742188 L19.2841797,30.4570312 L19.6210938,30.4570312 C19.8027344,30.4570312 19.9140625,30.3486328 19.9140625,30.1728516 C19.9140625,30 19.8027344,29.8945312 19.6210938,29.8945312 L19.2841797,29.8945312 L19.2841797,29.4814453 C19.2841797,29.2470703 19.1435547,29.1005859 18.9208984,29.1005859 C18.6953125,29.1005859 18.5546875,29.2470703 18.5546875,29.4814453 L18.5546875,29.8945312 L18.3583984,29.8945312 C18.1767578,29.8945312 18.0654297,30 18.0654297,30.1728516 C18.0654297,30.3486328 18.1767578,30.4570312 18.3583984,30.4570312 L18.5546875,30.4570312 L18.5546875,32.2324219 C18.5546875,32.7626953 18.8300781,33.0322266 19.3720703,33.0322266 L19.4013672,33.0322266 Z M20.7460938,29.4580078 C20.9746094,29.4580078 21.1533203,29.2822266 21.1533203,29.0625 C21.1533203,28.8398438 20.9746094,28.6669922 20.7460938,28.6669922 C20.5205078,28.6669922 20.3417969,28.8398438 20.3417969,29.0625 C20.3417969,29.2822266 20.5205078,29.4580078 20.7460938,29.4580078 Z M20.7460938,33.0585938 C20.96875,33.0585938 21.1123047,32.9121094 21.1123047,32.6748047 L21.1123047,30.2197266 C21.1123047,29.9824219 20.96875,29.8330078 20.7460938,29.8330078 C20.5234375,29.8330078 20.3828125,29.9824219 20.3828125,30.2167969 L20.3828125,32.6748047 C20.3828125,32.9121094 20.5234375,33.0585938 20.7460938,33.0585938 Z M22.9228516,33.0615234 C23.7138672,33.0615234 24.2470703,32.671875 24.2470703,32.0771484 C24.2470703,31.6171875 23.9863281,31.3798828 23.3300781,31.2304688 L22.8349609,31.1220703 C22.5126953,31.0488281 22.3779297,30.9257812 22.3779297,30.7441406 C22.3779297,30.5214844 22.5976562,30.3662109 22.9169922,30.3662109 C23.2246094,30.3662109 23.4033203,30.5009766 23.546875,30.7148438 C23.6142578,30.8115234 23.7197266,30.8496094 23.8251953,30.8496094 C24.0097656,30.8496094 24.1064453,30.7412109 24.1064453,30.5888672 C24.1064453,30.5537109 24.1005859,30.5185547 24.0917969,30.4804688 C23.9951172,30.1230469 23.5322266,29.8300781 22.9345703,29.8300781 C22.1669922,29.8300781 21.6689453,30.2080078 21.6689453,30.7851562 C21.6689453,31.2363281 21.9677734,31.5351562 22.5742188,31.6728516 L23.078125,31.7871094 C23.3974609,31.8603516 23.5146484,31.9628906 23.5146484,32.1503906 C23.5146484,32.3847656 23.2890625,32.5283203 22.9492188,32.5283203 C22.6005859,32.5283203 22.4130859,32.4228516 22.2490234,32.1855469 C22.1552734,32.0625 22.0527344,32.0068359 21.9326172,32.0068359 C21.7568359,32.0068359 21.6279297,32.1181641 21.6279297,32.2939453 C21.6279297,32.3378906 21.6367188,32.3847656 21.6572266,32.4375 C21.8066406,32.8095703 22.2666016,33.0615234 22.9228516,33.0615234 Z M27.4697266,33.0703125 C28.4863281,33.0703125 29.1220703,32.5605469 29.1220703,31.7519531 C29.1220703,31.125 28.7470703,30.7675781 27.8564453,30.5830078 L27.4023438,30.4892578 C26.875,30.3779297 26.6640625,30.1933594 26.6640625,29.90625 C26.6640625,29.5517578 26.9980469,29.3291016 27.4667969,29.3291016 C27.8623047,29.3291016 28.1640625,29.4814453 28.3076172,29.8388672 C28.3867188,30.0029297 28.4951172,30.0791016 28.6708984,30.0791016 C28.8671875,30.0791016 28.9990234,29.953125 28.9990234,29.7685547 C28.9990234,29.6982422 28.9902344,29.6425781 28.9726562,29.5957031 C28.7998047,29.0361328 28.2197266,28.7021484 27.4726562,28.7021484 C26.5556641,28.7021484 25.9023438,29.2060547 25.9023438,29.9501953 C25.9023438,30.5683594 26.2978516,30.9667969 27.1445312,31.1396484 L27.5986328,31.2333984 C28.1494141,31.3476562 28.3603516,31.5351562 28.3603516,31.8398438 C28.3603516,32.1914062 28.0029297,32.4433594 27.4931641,32.4433594 C27.0419922,32.4433594 26.6787109,32.2792969 26.546875,31.9130859 C26.4648438,31.7431641 26.359375,31.6757812 26.1923828,31.6757812 C25.9931641,31.6757812 25.8583984,31.8105469 25.8583984,32.0214844 C25.8583984,32.0917969 25.8730469,32.1679688 25.8994141,32.2382812 C26.0634766,32.71875 26.6259766,33.0703125 27.4697266,33.0703125 Z M32.8720703,33.5273438 C33.0566406,33.5273438 33.1884766,33.4042969 33.1884766,33.2314453 C33.1884766,33.1523438 33.1679688,33.09375 33.1152344,33.0146484 L32.8457031,32.6337891 C33.3027344,32.2705078 33.5546875,31.6582031 33.5546875,30.8876953 C33.5546875,29.5458984 32.78125,28.7021484 31.5507812,28.7021484 C30.3173828,28.7021484 29.5439453,29.5458984 29.5439453,30.8876953 C29.5439453,32.2382812 30.3173828,33.0703125 31.5507812,33.0703125 C31.8203125,33.0703125 32.0693359,33.0322266 32.2949219,32.9501953 L32.5908203,33.3662109 C32.6669922,33.4804688 32.7490234,33.5273438 32.8720703,33.5273438 Z M31.5507812,32.4316406 C30.7949219,32.4316406 30.3173828,31.8310547 30.3173828,30.8876953 C30.3173828,29.9443359 30.7949219,29.3408203 31.5507812,29.3408203 C32.3037109,29.3408203 32.7841797,29.9443359 32.7841797,30.8876953 C32.7841797,31.3740234 32.640625,31.7607422 32.3916016,32.0126953 L32.1513672,31.6816406 C32.0810547,31.5849609 32.0078125,31.546875 31.8964844,31.546875 C31.7236328,31.546875 31.5976562,31.6669922 31.5976562,31.8369141 C31.5976562,31.9042969 31.6181641,31.96875 31.6708984,32.0478516 L31.9052734,32.3789062 C31.796875,32.4111328 31.6767578,32.4316406 31.5507812,32.4316406 Z M36.53125,33 C36.7392578,33 36.8769531,32.8769531 36.8769531,32.6806641 C36.8769531,32.484375 36.7363281,32.3613281 36.53125,32.3613281 L34.9111328,32.3613281 L34.9111328,29.1152344 C34.9111328,28.8662109 34.7705078,28.7226562 34.5332031,28.7226562 C34.2988281,28.7226562 34.1552734,28.8662109 34.1552734,29.1152344 L34.1552734,32.6074219 C34.1552734,32.8535156 34.2988281,33 34.5332031,33 L36.53125,33 Z" id="MybatisSQL" fill="#FFFFFF"></path>
            <g id="编组" transform="translate(3.000000, 6.500000)">
                <mask id="mask-5" fill="white">
                    <use xlink:href="#path-4"></use>
                </mask>
                <g id="Clip-33"></g>
                <path d="M31.1312861,16.6139667 C30.1578962,17.5871259 28.8642348,18.1230268 27.4884289,18.1230268 C27.4884289,18.1230268 27.4878521,18.1230268 27.4877367,18.1230268 C26.1112385,18.1230268 24.8171157,17.5868951 23.8440719,16.6138514 L11.4527044,4.22225314 C10.7589752,3.52863929 9.86011537,3.18690872 8.89664744,3.20133017 L9.34451985,2.75357313 C10.3172175,1.78087547 11.610302,1.24520529 12.9857618,1.24520529 C14.3108042,1.24520529 15.5696233,1.74672548 16.530207,2.65758398 L16.5304377,2.65769936 L27.8010859,13.9231558 C28.8212012,14.9431558 29.9638412,15.3039226 30.9401154,15.3039226 C31.4029861,15.3039226 31.8277842,15.2222396 32.1850899,15.0917543 C31.9319647,15.651191 31.5784662,16.1666712 31.1312861,16.6139667 Z M16.9511978,18.1231422 C15.5748151,18.1231422 14.2808076,17.5870105 13.3075331,16.6138514 L6.83011198,10.1363149 C5.49226332,8.79858161 4.11645741,8.73351205 3.16002715,8.93795046 L7.06766203,5.03043095 C8.37516797,4.2001018 9.71993892,4.21983034 10.5874177,5.08753987 L21.274055,15.7740618 C21.0778079,16.0761045 20.8508721,16.3574958 20.5945165,16.6139667 C19.6213573,17.5870105 18.3274652,18.1231422 16.9511978,18.1231422 Z M6.41442823,18.1230268 C5.03804547,18.1230268 3.74426875,17.5870105 2.7711096,16.6139667 C1.35965389,15.2023957 0.941316593,13.1694333 1.51309807,11.3882117 C1.62512385,11.14547 2.30743129,10.4045538 3.33285375,10.1533899 C4.28374618,9.9204547 5.16933831,10.2057686 5.96494062,11.0016016 L10.8174686,15.854245 L10.0579776,16.6139667 C9.08481846,17.5870105 7.79081099,18.1230268 6.41442823,18.1230268 Z M24.5577604,2.75357313 L31.1311707,9.326868 C32.0970614,10.2929895 32.6318086,11.575229 32.6394231,12.94019 L32.6394231,12.94019 C32.635039,13.3474516 32.3317272,13.7132949 31.8280149,13.918887 C31.0742925,14.2266983 29.7937835,14.1856261 28.6661418,13.0577536 L17.859172,2.25089922 C18.7406108,1.599396 19.8047981,1.24520529 20.9164031,1.24520529 C22.2918629,1.24520529 23.5850628,1.78087547 24.5577604,2.75357313 Z M31.996342,8.46181201 L25.4230472,1.88840176 C24.2192603,0.684614863 22.6187106,0.0215744825 20.9164031,0.0215744825 C19.4637598,0.0215744825 18.0756091,0.508788599 16.9511978,1.40372582 C15.8267866,0.508788599 14.4382898,0.0215744825 12.9857618,0.0215744825 C11.2834544,0.0215744825 9.68313539,0.684499491 8.47923312,1.88840176 L1.90593824,8.46169664 C1.18036647,9.18726841 0.6682321,10.0458636 0.366073974,10.959491 C0.353844588,10.9901798 0.342422803,11.0208687 0.332962335,11.0507499 L0.336423482,11.0517883 C-0.352344757,13.2467323 0.169711571,15.7430268 1.90593824,17.4791381 C3.11018663,18.6832711 4.71119783,19.3466576 6.41442823,19.3466576 C8.11754326,19.3466576 9.71890058,18.6832711 10.9232643,17.4790227 L11.6827553,16.7194164 L12.4422464,17.4790227 C13.6466101,18.6832711 15.2479674,19.3466576 16.9511978,19.3466576 C18.6541975,19.3466576 20.2554394,18.6832711 21.4598032,17.4791381 C21.7153512,17.2237055 21.9474788,16.9483135 22.155263,16.6553851 L22.9790159,17.4790227 C24.183149,18.6832711 25.7842755,19.3463115 27.4877367,19.3466576 C27.4878521,19.3466576 27.4880828,19.3466576 27.4880828,19.3466576 C29.1911978,19.3466576 30.792209,18.6832711 31.9964574,17.4790227 C33.2007058,16.2747743 33.8639769,14.6735324 33.8639769,12.9704174 C33.8639769,11.2673023 33.2005904,9.6660604 31.996342,8.46181201 L31.996342,8.46181201 Z" id="Fill-32" fill="#FFFFFF" mask="url(#mask-5)"></path>
            </g>
        </g>
    </g>
</svg>