<?xml version="1.0" encoding="UTF-8"?>
<svg width="18px" height="15px" viewBox="0 0 18 15" version="1.1" xmlns="http://www.w3.org/2000/svg" xmlns:xlink="http://www.w3.org/1999/xlink">
    <!-- Generator: Sketch 56.3 (81716) - https://sketch.com -->
    <title>画板</title>
    <desc>Created with Sketch.</desc>
    <defs>
        <path d="M16.4812691,9.24068828 C15.965945,9.78195943 15.2810655,10.0800275 14.5526977,10.0800275 C14.5526977,10.0800275 14.5523923,10.0800275 14.5523312,10.0800275 C13.8235969,10.0800275 13.138473,9.78183105 12.6233322,9.24062415 L6.06319645,2.3484172 C5.69592805,1.96262917 5.22006108,1.77255863 4.70998982,1.78057984 L4.94709874,1.53153737 C5.46205632,0.990522936 6.14663047,0.692583182 6.87481507,0.692583182 C7.57630811,0.692583182 8.24274175,0.971528712 8.75128606,1.47814821 L8.75140819,1.47821238 L14.7182219,7.74405926 C15.258283,8.31138326 15.86321,8.51204175 16.3800611,8.51204175 C16.6251103,8.51204175 16.8500034,8.46660967 17.0391652,8.39403374 C16.9051578,8.70519243 16.7180115,8.99190252 16.4812691,9.24068828 Z M8.97416354,10.0800917 C8.24549035,10.0800917 7.56042755,9.78189524 7.04516458,9.24062415 L3.61594164,5.63781835 C2.90766882,4.89377109 2.17930098,4.8575794 1.67295555,4.97128805 L3.74170343,2.79792569 C4.43391245,2.33609662 5.14585002,2.34706964 5.60510349,2.82968968 L11.262735,8.77353317 C11.1588395,8.94152932 11.038697,9.09803916 10.9029793,9.24068828 C10.3877774,9.78189524 9.70277569,10.0800917 8.97416354,10.0800917 Z M3.39587377,10.0800275 C2.66720054,10.0800275 1.98225993,9.78189524 1.46705802,9.24068828 C0.719816765,8.45557249 0.498344079,7.3248388 0.801051919,6.33412335 C0.860359685,6.19911041 1.22158127,5.78701282 1.76445199,5.64731546 C2.26786562,5.5177569 2.73670852,5.6764485 3.15790974,6.11909081 L5.72689514,8.81813107 L5.32481167,9.24068828 C4.80960977,9.78189524 4.12454699,10.0800275 3.39587377,10.0800275 Z M13.0011673,1.53153737 L16.481208,5.18760398 C16.9925619,5.72496076 17.2756634,6.43814237 17.2796946,7.19733368 L17.2796946,7.19733368 C17.2773736,7.42385258 17.1167968,7.62733462 16.8501255,7.74168495 C16.451096,7.91288959 15.7731795,7.89004524 15.1761927,7.26272255 L9.45485576,1.25195015 C9.92149984,0.889584055 10.4848931,0.692583182 11.0733899,0.692583182 C11.8015745,0.692583182 12.4862097,0.990522936 13.0011673,1.53153737 Z M16.9392399,4.70645984 L13.4592603,1.05032906 C12.8219613,0.380782787 11.9746115,0.0119997272 11.0733899,0.0119997272 C10.3043434,0.0119997272 9.56944011,0.282988219 8.97416354,0.780752301 C8.37888702,0.282988219 7.64380048,0.0119997272 6.87481507,0.0119997272 C5.97359351,0.0119997272 5.12636579,0.380718617 4.48900577,1.05032906 L1.00902613,4.70639567 C0.624899896,5.10995869 0.353769935,5.58750933 0.193803869,6.09566889 C0.187329488,6.112738 0.18128266,6.12980717 0.176274177,6.14642709 L0.178106549,6.14700465 C-0.18653546,7.36783251 0.0898473023,8.75627151 1.00902613,9.72189661 C1.64656939,10.3916354 2.49416356,10.760611 3.39587377,10.760611 C4.2975229,10.760611 5.14530031,10.3916354 5.78290463,9.72183243 L6.1849881,9.2993394 L6.58707162,9.72183243 C7.22467594,10.3916354 8.07245333,10.760611 8.97416354,10.760611 C9.87575162,10.760611 10.7234679,10.3916354 11.3610723,9.72189661 C11.4963624,9.579825 11.6192535,9.42665197 11.7292569,9.26372519 L12.1653614,9.72183243 C12.8028436,10.3916354 13.6504988,10.7604185 14.5523312,10.760611 C14.5523923,10.760611 14.5525144,10.760611 14.5525144,10.760611 C15.4541635,10.760611 16.3017577,10.3916354 16.939301,9.72183243 C17.5768442,9.05202947 17.9279878,8.16141872 17.9279878,7.21414616 C17.9279878,6.26687354 17.5767832,5.37626279 16.9392399,4.70645984 L16.9392399,4.70645984 Z" id="path-1"></path>
        <linearGradient x1="0%" y1="73.3686427%" x2="100%" y2="27.9523372%" id="linearGradient-3">
            <stop stop-color="#4F8BF5" offset="0%"></stop>
            <stop stop-color="#00FFCC" offset="100%"></stop>
        </linearGradient>
    </defs>
    <g id="画板" stroke="none" stroke-width="1" fill="none" fill-rule="evenodd">
        <g id="编组备份" transform="translate(0.000000, 2.000000)">
            <g id="Fill-32-Clipped">
                <mask id="mask-2" fill="white">
                    <use xlink:href="#path-1"></use>
                </mask>
                <g id="path-3"></g>
                <path d="M16.4812691,9.24068828 C15.965945,9.78195943 15.2810655,10.0800275 14.5526977,10.0800275 C14.5526977,10.0800275 14.5523923,10.0800275 14.5523312,10.0800275 C13.8235969,10.0800275 13.138473,9.78183105 12.6233322,9.24062415 L6.06319645,2.3484172 C5.69592805,1.96262917 5.22006108,1.77255863 4.70998982,1.78057984 L4.94709874,1.53153737 C5.46205632,0.990522936 6.14663047,0.692583182 6.87481507,0.692583182 C7.57630811,0.692583182 8.24274175,0.971528712 8.75128606,1.47814821 L8.75140819,1.47821238 L14.7182219,7.74405926 C15.258283,8.31138326 15.86321,8.51204175 16.3800611,8.51204175 C16.6251103,8.51204175 16.8500034,8.46660967 17.0391652,8.39403374 C16.9051578,8.70519243 16.7180115,8.99190252 16.4812691,9.24068828 Z M8.97416354,10.0800917 C8.24549035,10.0800917 7.56042755,9.78189524 7.04516458,9.24062415 L3.61594164,5.63781835 C2.90766882,4.89377109 2.17930098,4.8575794 1.67295555,4.97128805 L3.74170343,2.79792569 C4.43391245,2.33609662 5.14585002,2.34706964 5.60510349,2.82968968 L11.262735,8.77353317 C11.1588395,8.94152932 11.038697,9.09803916 10.9029793,9.24068828 C10.3877774,9.78189524 9.70277569,10.0800917 8.97416354,10.0800917 Z M3.39587377,10.0800275 C2.66720054,10.0800275 1.98225993,9.78189524 1.46705802,9.24068828 C0.719816765,8.45557249 0.498344079,7.3248388 0.801051919,6.33412335 C0.860359685,6.19911041 1.22158127,5.78701282 1.76445199,5.64731546 C2.26786562,5.5177569 2.73670852,5.6764485 3.15790974,6.11909081 L5.72689514,8.81813107 L5.32481167,9.24068828 C4.80960977,9.78189524 4.12454699,10.0800275 3.39587377,10.0800275 Z M13.0011673,1.53153737 L16.481208,5.18760398 C16.9925619,5.72496076 17.2756634,6.43814237 17.2796946,7.19733368 L17.2796946,7.19733368 C17.2773736,7.42385258 17.1167968,7.62733462 16.8501255,7.74168495 C16.451096,7.91288959 15.7731795,7.89004524 15.1761927,7.26272255 L9.45485576,1.25195015 C9.92149984,0.889584055 10.4848931,0.692583182 11.0733899,0.692583182 C11.8015745,0.692583182 12.4862097,0.990522936 13.0011673,1.53153737 Z M16.9392399,4.70645984 L13.4592603,1.05032906 C12.8219613,0.380782787 11.9746115,0.0119997272 11.0733899,0.0119997272 C10.3043434,0.0119997272 9.56944011,0.282988219 8.97416354,0.780752301 C8.37888702,0.282988219 7.64380048,0.0119997272 6.87481507,0.0119997272 C5.97359351,0.0119997272 5.12636579,0.380718617 4.48900577,1.05032906 L1.00902613,4.70639567 C0.624899896,5.10995869 0.353769935,5.58750933 0.193803869,6.09566889 C0.187329488,6.112738 0.18128266,6.12980717 0.176274177,6.14642709 L0.178106549,6.14700465 C-0.18653546,7.36783251 0.0898473023,8.75627151 1.00902613,9.72189661 C1.64656939,10.3916354 2.49416356,10.760611 3.39587377,10.760611 C4.2975229,10.760611 5.14530031,10.3916354 5.78290463,9.72183243 L6.1849881,9.2993394 L6.58707162,9.72183243 C7.22467594,10.3916354 8.07245333,10.760611 8.97416354,10.760611 C9.87575162,10.760611 10.7234679,10.3916354 11.3610723,9.72189661 C11.4963624,9.579825 11.6192535,9.42665197 11.7292569,9.26372519 L12.1653614,9.72183243 C12.8028436,10.3916354 13.6504988,10.7604185 14.5523312,10.760611 C14.5523923,10.760611 14.5525144,10.760611 14.5525144,10.760611 C15.4541635,10.760611 16.3017577,10.3916354 16.939301,9.72183243 C17.5768442,9.05202947 17.9279878,8.16141872 17.9279878,7.21414616 C17.9279878,6.26687354 17.5767832,5.37626279 16.9392399,4.70645984 L16.9392399,4.70645984 Z" id="Fill-32" fill="url(#linearGradient-3)" fill-rule="nonzero" mask="url(#mask-2)"></path>
            </g>
        </g>
    </g>
</svg>